<svg xmlns="http://www.w3.org/2000/svg" width="256" height="256" viewBox="0 0 256 256">
  <defs>
    <linearGradient id="g" x1="0" y1="0" x2="1" y2="1">
      <stop offset="0%" stop-color="#1976d2"/>
      <stop offset="100%" stop-color="#42a5f5"/>
    </linearGradient>
  </defs>
  <rect width="256" height="256" rx="48" fill="url(#g)"/>
  <!-- Simple takeoff plane icon -->
  <g fill="#fff" transform="translate(30 40)">
    <path d="M40 72l92-24c10-3 20 4 20 14 0 7-5 12-12 14l-60 16 18 34c2 5 0 10-5 12s-10 0-12-5l-20-36-30 8-8-14 30-9-12-22-20 6-8-14 24-7 10 18 93-24c3-1 6 1 6 4s-2 6-5 7L52 78c-6 2-10-1-12-6-2-5 1-10 6-12z"/>
    <circle cx="156" cy="106" r="8" fill="#e3f2fd"/>
  </g>
</svg>

